<svg xmlns="http://www.w3.org/2000/svg" xmlns:xlink="http://www.w3.org/1999/xlink" width="725" height="80" viewBox="0 0 725 80"><defs><path class="path1" d="M29.92 13.54h-.4l-4.58-8.28c-.2-.36-.7-.65-1.1-.65H9.96c-.4 0-.9.3-1.1.7L4.3 13.6h-.4c-.83 0-1.5.66-1.5 1.48v7.45c0 .8.67 1.48 1.5 1.48h1.48v2.3c0 1.2 1 2.3 2.23 2.3h.8c1.3 0 2.3-1 2.3-2.2V24h12.6v2.23c0 1.2 1 2.23 2.3 2.23h.8c1.3 0 2.3-1 2.3-2.22V24H30c.8 0 1.46-.67 1.46-1.5v-7.43c0-.82-.65-1.48-1.47-1.48zM6.5 19.48c-1.03-.02-1.87-.85-1.87-1.87s.84-1.8 1.86-1.8 1.8.9 1.8 1.9-.9 1.9-1.9 1.9zm1.48-5.96l3-6.03c.2-.4.68-.7 1.1-.7h9.66c.4 0 .9.3 1.07.6l3.1 6H8zm19.34 5.95c-1.03-.02-1.86-.85-1.86-1.87 0-1.03.83-1.86 1.86-1.86s1.85.83 1.85 1.86-.83 1.86-1.86 1.86z" id="icon-driving"/><path class="path1" d="M1.88 5.12c-1.88 0-.94.5 0 1.26L16 17.13l14.12-10.7c.94-.78 1.88-1.3 0-1.3H1.88zM0 7.64v15.83c0 .93.95 2.13 1.7 2.13h28.6c.75 0 1.7-1.2 1.7-2.13V7.65l-16 12.2L0 7.65z" id="icon-email"/><path class="path1" d="M20.8 30.8l-4.5-13.53H1.6L29.86 1.4z" id="icon-navigate"/><path class="path1" d="M16 .64C7.53.64.64 7.54.64 16S7.54 31.36 16 31.36c8.47 0 15.36-6.9 15.36-15.36S24.46.64 16 .64zm1.92 28v-5.6h-3.84v5.6c-5.52-.84-9.88-5.2-10.72-10.72h5.6v-3.84h-5.6C4.2 8.56 8.56 4.2 14.08 3.36v5.6h3.84v-5.6c5.52.84 9.88 5.2 10.72 10.72h-5.6v3.84h5.6c-.84 5.52-5.2 9.88-10.72 10.72z" id="icon-geolocation"/><path class="path1" d="M7.34.64c-.88 0-1.58.72-1.58 1.62v27.48c0 .8.8 1.62 1.58 1.62s1.57-.8 1.57-1.62V13.17c.6-.23 1.1-.4 1.6-.4 3.2 0 7.8 4.04 11.1 4.04 1.4 0 3.4-.5 4.7-1.6V3.9c-1.6 1.18-3.2 2.4-4.7 2.4-3.1 0-7.8-4.05-11-4.05-.5 0-1 .1-1.6.2v-.2C9 1.35 8.3.63 7.5.63z" id="icon-flag"/><path class="path1" d="M26.34 16H5.84c-.6 0-1.08-.5-1.08-1.1 0-.1.02-.2.04-.3L5.9 7c.08-.5.53-.6 1.06-.6h18.28c.53 0 .98.1 1.07.58l1.1 7.76c0 .1.1.14.1.24 0 .58-.5 1.02-1.1 1.02zm-.82 8.54c-1.15 0-2.1-.9-2.1-2.04 0-1.12.95-2.03 2.1-2.03 1.15 0 2.1.9 2.1 2.03s-.95 2.04-2.1 2.04zm-18.88 0c-1.14 0-2.08-.9-2.08-2.04 0-1.12.94-2.03 2.08-2.03 1.16 0 2.1.9 2.1 2.03s-.94 2.04-2.1 2.04zm3.6-22.62h12.8v1.92h-12.8c-1.28 0-1.28-1.92 0-1.92zM28.3 4.86c-.38-1.8-1.48-2.53-3.26-3.25-1.78-.7-5.9-1.5-9-1.5C12.94.1 8.8.9 7 1.7c-1.76.7-2.83 1.4-3.2 3.2l-1.25 10v13.9h1.92v1.28c0 2.56 3.2 2.56 3.2 0V28.8h16v1.28c0 2.56 3.84 2.56 3.84 0V28.8h2V14.88L28.3 4.86z" id="icon-transit"/><path class="path1" d="M15.26 6.05c1.3-.04 2.3-1.13 2.27-2.44-.03-1.3-1.1-2.3-2.4-2.3-1.27.1-2.3 1.2-2.26 2.5.03 1.3 1.1 2.4 2.4 2.4zm7.9 7.9l-3.4-1.9-2.82-4.5c-.46-.58-1.17-1-1.97-1-.6.03-1.15.3-1.57.68l-4.26 4.35c-.14.15-.23.34-.27.55l-.54 4.8v.13c0 .6.5 1.06 1.07 1.05.55 0 .96-.4 1.02-1l.45-4.1 1.48-1.5L11.03 23l-2.46 5.44c-.08.2-.15.46-.15.7.03.9.75 1.6 1.62 1.58.62-.02 1.12-.4 1.4-.94l2.62-5.86c.06-.16.24-.54.25-.7l.4-2.85 2.7 9.23c.3.64.9 1.13 1.6 1.1.9 0 1.6-.75 1.6-1.64v-.32l-3.7-12.8.5-4.16 1.1 1.68.3.28 3.7 2.1c.2.05.4.1.5.1.6-.02 1.1-.52 1.1-1.12 0-.36-.2-.7-.5-.88z" id="icon-walking"/><path class="path1" d="M7.23 27.6c2.68 0 4.86-2.22 4.86-4.96 0-2.76-2.2-5-4.9-5s-4.9 2.24-4.9 5c0 2.74 2.2 4.97 4.8 4.97zm-5.95-4.96c0-3.38 2.67-6.1 5.95-6.1 3.3 0 5.96 2.72 5.96 6.1 0 3.37-2.7 6.1-6 6.1s-6-2.74-6-6.1zm23.5 5.03c2.66 0 4.84-2.23 4.84-4.97 0-2.75-2.18-5-4.85-5-2.68.02-4.86 2.25-4.86 5 0 2.74 2.2 4.97 4.9 4.97zM18.8 22.7c0-3.38 2.68-6.1 5.97-6.1 3.28 0 5.95 2.72 5.95 6.1 0 3.37-2.67 6.1-5.95 6.1-3.3 0-5.96-2.73-5.96-6.1zm.02-14.9c1.24 0 2.25-1.04 2.25-2.3s-1-2.3-2.25-2.3-2.24 1.03-2.24 2.3c0 1.27 1 2.3 2.25 2.3zm.1 5.64c-.33 0-.68-.2-.93-.6l-1.5-2.37-3 3.04 2.8 1.5c1.1.6.9 1.6.9 1.6v6.5c0 .8-.6 1.4-1.3 1.4s-1.3-.6-1.3-1.3V18l-4.8-2.8c-.6-.34-1-.97-1-1.7 0-.5.1-.95.5-1.3L14 7.34c.6-.64 1.4-.53 1.4-.53 1 0 1.53.9 1.53.9l2.35 4H23c1.3 0 1.3 1.9 0 1.9h-4.1z" id="icon-bicycling"/><path class="path1" d="M25.33 5.33q.58 0 .96.38t.3 1q0 .6-.4 1l-8.4 8.4 8.4 8.4q.4.4.4 1t-.4 1-1 .4q-.6 0-1-.4l-8.4-8.4-8.4 8.4q-.4.4-1 .4t-1-.4-.4-.9q0-.5.4-.9l8.4-8.4-8.4-8.4Q5 7.5 5 7q0-.6.4-.95t.94-.35q.52 0 .9.4l8.4 8.4L24.12 6q.4-.4.94-.4z" id="icon-cross"/><path class="path1" d="M4 6.67h24q.55 0 .94.4t.4.93-.4.94-.94.4H4q-.55 0-.94-.4T2.66 8t.4-.94.94-.4zm0 16h24q.55 0 .94.4t.4.93-.4.94-.94.4H4q-.55 0-.94-.4t-.4-.94.4-.94.94-.4zm0-8h24q.55 0 .94.4t.4.93-.4.94-.94.4H4q-.55 0-.94-.4t-.4-.94.4-.94.94-.4z" id="icon-menu"/><path class="path1" d="M28.93 7.3q-1.2 1.74-2.9 2.97.02.25.02.75 0 2.32-.68 4.63T23.3 20.1t-3.27 3.74-4.6 2.6-5.78.98q-4.84 0-8.85-2.6.6.08 1.38.08 4.02 0 7.16-2.45-1.88-.04-3.36-1.16t-2.03-2.9q.6.1 1.1.1.75 0 1.5-.2-2-.5-3.3-2t-1.32-3.7v-.1q1.2.7 2.6.7-1.17-.8-1.87-2.1t-.7-2.8q0-1.6.8-2.9Q4.9 8.3 8 9.9t6.64 1.78q-.14-.68-.14-1.32 0-2.4 1.7-4.08t4.07-1.7q2.5 0 4.2 1.83Q26.44 6 28.15 5q-.66 2.05-2.53 3.18 1.67-.18 3.33-.9z" id="icon-twitter"/><path class="path1" d="M9.13 9.93h4.58L13.2 15H9.12v14.7H3.04V15H0V9.93h3.04V6.87q0-3.25 1.53-4.92T9.62.28h4.06v5.08h-2.54q-.7 0-1.1.1t-.62.43-.24.6-.05.9v2.5z" id="icon-facebook"/><path class="path1" d="M27.43 16q0 4.48-2.62 8.06t-6.7 4.96q-.5.1-.7-.13t-.2-.6v-3.7q0-1.8-.9-2.6 1.1-.1 1.9-.3t1.7-.7 1.5-1.2 1-1.9.4-2.7q0-2.2-1.4-3.7.5-1.5-.3-3.5-.5-.2-1.4.2T18 9l-.7.4q-1.66-.5-3.43-.5t-3.4.44q-.3-.2-.77-.5t-1.5-.7T6.5 8q-.8 2.02-.13 3.65Q5 13.13 5 15.3q0 1.52.37 2.68t.94 1.88 1.5 1.2 1.7.7 1.9.3q-.7.66-.8 1.85-.4.2-.8.3t-1 .1-1.1-.4-1-1.1q-.3-.6-.8-.9t-.9-.4h-.4q-.4 0-.5.1t-.1.2.2.3.3.2l.1.1q.4.2.8.7t.6.9l.2.4q.3.7.8 1.1t1.2.6 1.3.2 1 0h.4v2.6q0 .3-.2.58t-.7.1Q5.6 28 3 24.44T0 16q0-3.74 1.84-6.9t5-4.98 6.87-1.84 6.9 1.84 5 5T27.5 16z" id="icon-github"/><path class="path1" d="M6.86 24q0 1.43-1 2.43t-2.43 1-2.43-1T0 24t1-2.43 2.43-1 2.43 1 1 2.43zM16 26.2q.04.5-.3.85-.32.38-.84.38h-2.4q-.46 0-.78-.3t-.36-.74q-.4-4.1-3.3-7t-6.98-3.3Q.6 16 .3 15.7t-.3-.8v-2.4q0-.53.34-.85.3-.3.77-.3h.1q2.9.24 5.5 1.45t4.6 3.24q2.1 2 3.3 4.6T16 26.2zm9.14.03q.04.48-.32.84-.32.36-.82.36h-2.55q-.47 0-.8-.32t-.35-.7q-.2-3.8-1.8-7.3t-4.13-6-6-4.1-7.3-1.8q-.45 0-.77-.3T0 6V3.42q0-.5.37-.82.32-.3.78-.3h.06q4.7.24 9 2.15t7.6 5.25q3.3 3.3 5.2 7.57t2.2 8.95z" id="icon-rss"/><path class="path1" d="M26 21.7q0-.7-.5-1.2l-3.7-3.7q-.5-.5-1.23-.5-.75 0-1.28.56 0 .05.3.33t.4.3.2.3.2.4 0 .5q0 .7-.5 1.2t-1.2.5q-.3 0-.5-.1t-.5-.2-.4-.3-.4-.4-.4-.4q-.6.5-.6 1.3 0 .7.5 1.2l3.7 3.7q.4.4 1.2.4.7 0 1.2-.5l2.6-2.6q.5-.5.5-1.2zM13.45 9.14q0-.72-.5-1.22L9.27 4.2q-.5-.5-1.22-.5-.7 0-1.2.5L4.2 6.8q-.5.5-.5 1.2t.5 1.2l3.73 3.73q.48.48 1.2.48.76 0 1.3-.5l-.34-.3-.4-.4-.3-.3-.3-.4L9 11q0-.7.5-1.2t1.22-.5q.25 0 .5.05t.43.24.33.2.37.4.36.3q.6-.6.6-1.3zM29.43 21.7q0 2.16-1.52 3.64l-2.6 2.6q-1.5 1.5-3.6 1.5t-3.6-1.53l-3.7-3.7q-1.5-1.4-1.5-3.6t1.6-3.7L13 15.3q-1.53 1.6-3.7 1.6-2.14 0-3.64-1.5l-3.7-3.7Q.3 10.2.3 8t1.5-3.63l2.63-2.6Q5.9.3 8.05.3q2.16 0 3.65 1.5l3.68 3.7q1.48 1.48 1.48 3.62 0 2.2-1.57 3.74l1.5 1.57q1.5-1.57 3.7-1.57 2.1 0 3.6 1.5l3.7 3.7q1.5 1.5 1.5 3.65z" id="icon-site"/><path class="path1" d="M27.43 16q0 3.73-1.84 6.88t-5 5-6.9 1.83q-2 0-3.9-.5 1-1.6 1.4-2.9l.9-3.7q.3.7 1.3 1.2t2 .5q2.1 0 3.8-1.2t2.8-3.5.9-4.8q0-2-1.1-3.8t-3.1-2.9T14.1 7q-1.88 0-3.5.5T7.9 8.9 6 10.8t-1.2 2.3-.37 2.4q0 1.85.7 3.26t2.1 2q.54.2.68-.37l.2-.6.2-.5q.1-.4-.2-.8-.9-1.1-.9-2.7 0-2.7 1.9-4.6t4.8-2q2.7 0 4.2 1.4t1.5 3.8q0 3-1.2 5.1t-3.1 2.1q-1.1 0-1.8-.8t-.5-1.7q.1-.6.5-1.7t.6-1.86.2-1.3q0-.9-.4-1.5t-1.4-.6q-1.1 0-1.9 1t-.8 2.5q0 1.3.4 2.2l-1.8 7.5Q8 26.7 8 28.6q-3.7-1.6-5.94-5T0 15.9q0-3.7 1.84-6.82t5-5 6.86-1.8 6.88 1.84 5 5T27.42 16z" id="icon-pinterest"/><path class="path1" d="M15.64 26.16q0-.37-.08-.72t-.17-.64-.4-.62-.4-.55-.5-.52-.5-.4-.6-.4-.6-.4-.6-.4-.6-.4h-.9q-1 0-1.9.2t-2 .5-1.8.9T3.4 24t-.43 1.9q0 1.2.6 2.16t1.67 1.5 2.16.8 2.28.3q1.06 0 2-.26t1.8-.7 1.34-1.3.5-1.97zm-2.14-15.4q0-1.06-.3-2.27t-.83-2.4-1.5-1.9-2.14-.8q-1.66 0-2.57 1.2t-.9 2.9q0 .8.2 1.7T6.1 11t1 1.65T8.4 14t1.7.5q1.7 0 2.5-1.1t.8-2.85zM11.16 2.3h7.8l-2.4 1.4h-2.42q1.27.8 1.97 2.25t.7 3q0 1.34-.4 2.36t-1 1.7-1.2 1.2-1 1.1-.4 1.2q0 .5.3.9t.8.9 1.1.9 1.2 1 1.1 1.2.8 1.5.3 1.9q0 2.9-2.5 5.1Q13 32 8.2 32q-1.1 0-2.2-.18t-2.17-.6T1.9 30.2.55 28.6 0 26.43q0-1.1.66-2.4.57-1.16 1.7-2t2.6-1.25 2.77-.65 2.68-.24q-1.1-1.5-1.1-2.7 0-.2.1-.5t.1-.4.2-.4.2-.4q-.7.1-1.2.1-2.6 0-4.5-1.8T2 9.6q0-2.5 1.7-4.45t4.1-2.5q1.68-.37 3.34-.37zM29.7 6.85v2.28h-4.56v4.57h-2.28V9.15H18.3v-2.3h4.56V2.3h2.28v4.56h4.57z" id="icon-google-plus"/><path class="path1" d="M6.23 11.16v17.7H.33v-17.7h5.9zM6.6 5.7q.03 1.3-.9 2.17t-2.42.88h-.03Q1.8 8.75.9 7.87T0 5.7q0-1.33.92-2.2t2.4-.86 2.38.87.9 2.2zm20.83 13v10.16h-5.88V19.4q0-1.88-.72-2.94t-2.26-1.07q-1.12 0-1.88.6t-1.2 1.5q-.2.5-.2 1.4v9.9H9.5q.04-7.2.04-11.6T9.52 12l-.02-.85h5.88v2.57h-.04q.36-.57.73-1t1-.93 1.57-.8 2.04-.3q3.06 0 4.9 2t1.87 5.9z" id="icon-linkedin"/><path class="path1" d="M22.86 16q0-.66-.54-.96l-9.14-5.72q-.56-.36-1.16-.03-.6.3-.6 1v11.4q0 .7.6 1 .28.1.55.1.36 0 .6-.2l9.15-5.7q.54-.3.54-1zM32 16q0 1.7-.02 2.68t-.15 2.44-.4 2.63q-.3 1.3-1.23 2.2t-2.22 1.03q-3.96.45-11.98.45t-11.98-.45q-1.27-.14-2.22-1.03t-1.25-2.2Q.3 22.6.17 21.12t-.15-2.44T0 16t.02-2.68.15-2.44.4-2.63q.3-1.3 1.23-2.2t2.22-1.03Q7.98 4.57 16 4.57t11.98.45q1.27.14 2.22 1.03t1.25 2.2q.25 1.16.38 2.63t.15 2.44T32 16z" id="icon-youtube"/><path class="path1" d="M16.57 25.02v2.7H3.95v-2.68zm4.3-6.18V32L0 31.98V18.84h2.16v11.03h16.57V18.84h2.15zM4.3 20.4l12.58 1.17-.24 2.68-12.6-1.16zm1.22-5.63l12.2 3.27-.7 2.6-12.2-3.26zm2.9-6.23l10.88 6.43-1.37 2.32-10.88-6.5zm6.44-5.9l7.1 10.43-2.2 1.52L12.6 4.1zM22.96 0l2.15 12.45-2.6.46L20.3.5z" id="icon-stack-overflow"/><path class="path1" d="M20.95 18.98q0-.9-.35-1.63t-.87-1.23-1.3-.87-1.47-.6-1.57-.42l-1.9-.43q-.6-.12-.8-.18t-.6-.2-.6-.3-.3-.37-.2-.54q0-1.3 2.5-1.3.8 0 1.4.2t.9.5.7.6.7.5.8.2q.8 0 1.3-.5t.5-1.3q0-1-1-1.8T16.6 8t-3.2-.43q-1.2 0-2.35.28T8.9 8.7t-1.6 1.54-.6 2.3q0 1.1.37 1.9t1 1.35 1.43.8 1.83.6l2.6.6q1.6.4 2 .6.58.3.58 1t-.7 1.1-1.8.5q-.9 0-1.6-.3t-1.1-.7-.8-.8-.8-.7-.9-.3q-.9 0-1.3.5T7 20q0 1.6 2.2 2.8t5.2 1.17q1.3 0 2.5-.35t2.2-.96T20.6 21t.6-2.34zm6.48 3.88q0 2.84-2 4.84t-4.86 2q-2.32 0-4.18-1.42-1.4.3-2.7.3-2.6 0-4.9-1t-4-2.68-2.7-4.02-1-4.88q0-1.3.3-2.68Q0 11.46 0 9.14 0 6.3 2 4.3t4.86-2.02q2.32 0 4.17 1.43 1.38-.2 2.68-.2 2.6 0 4.9 1t4.1 2.7 2.7 4.1 1 4.9q0 1.3-.3 2.7 1.5 1.9 1.5 4.2z" id="icon-skype"/><path class="path1" d="M34.23 9.3q.4 1.13-2.68 5.24l-1.16 1.5q-1.4 1.8-1.6 2.35-.4.7.2 1.4l1.4 1.4q2.5 2.3 3.4 3.9 0 .1.1.2l.1.4v.6l-.5.5-1.1.2h-4.6q-.5.1-1-.1t-1-.4l-.3-.2q-.5-.4-1.2-1.1t-1.2-1.4-1.1-1-1-.3l-.2.1-.3.2-.4.5-.3 1L20 26q0 .27-.06.5t-.14.32l-.07.1q-.33.34-.96.4h-2q-1.3.07-2.6-.3t-2.38-.94T10 24.9t-1.3-1l-.43-.44q-.18-.18-.5-.54T6.5 21.3t-1.9-2.7-2.18-3.76T.1 9.98q-.12-.3-.12-.48t.06-.3l.07-.1q.3-.34 1.1-.34l4.9-.03q.2.03.4.1t.3.17l.1.05q.3.2.5.57.4.9.8 1.85t.8 1.45l.3.52q.5 1.07 1 1.86t.9 1.22.8.7.6.24.5-.1q.1 0 .1-.08t.2-.4.3-.83.2-1.45 0-2.23q0-.7-.1-1.3t-.2-.82l-.1-.22q-.4-.6-1.5-.76-.2-.04.1-.43.3-.34.7-.54 1-.46 4.3-.43 1.5.02 2.4.23.4.1.6.24t.4.43.2.57.1.82 0 .98-.1 1.26 0 1.47v1.6l.06.73.2.7.4.44q.2.03.3.07t.5-.2.7-.6.94-1.2 1.2-1.9q1.1-1.8 1.93-4 .1-.2.2-.3t0-.2H33q.7-.1 1.12.1t.55.3z" id="icon-vk"/><path class="path1" d="M4.13 8.96c-.43-.43-1.13-.43-1.56 0-.44.43-.44 1.12 0 1.55l12.65 12.6c.43.5 1.13.5 1.56 0l12.66-12.6c.43-.4.43-1.1 0-1.5s-1.14-.4-1.57 0L16 20.4 4.13 8.95z" id="icon-arrow-down"/><path class="path1" d="M28 4.33H17.62l3.12 3.12-7.36 7.35v12.87h5.58V17.13l5.73-5.73 3.3 3.3V4.34zM12.82 17.1L4 8.3l3.96-3.95 7.63 7.63-2.8 2.75v2.4z" id="icon-direction"/></defs><g fill="#464646"><use xlink:href="#icon-driving"/><use xlink:href="#icon-email" transform="translate(48)"/><use xlink:href="#icon-navigate" transform="translate(96)"/><use xlink:href="#icon-geolocation" transform="translate(144)"/><use xlink:href="#icon-flag" transform="translate(192)"/><use xlink:href="#icon-transit" transform="translate(240)"/><use xlink:href="#icon-walking" transform="translate(290)"/><use xlink:href="#icon-bicycling" transform="translate(338)"/><use xlink:href="#icon-cross" transform="translate(386)"/><use xlink:href="#icon-menu" transform="translate(434)"/><use xlink:href="#icon-twitter" transform="translate(482)"/><use xlink:href="#icon-facebook" transform="translate(528)"/><use xlink:href="#icon-github" transform="translate(558)"/><use xlink:href="#icon-rss" transform="translate(606)"/><use xlink:href="#icon-site" transform="translate(647)"/><use xlink:href="#icon-pinterest" transform="translate(693)"/><use xlink:href="#icon-google-plus" transform="translate(0 48)"/><use xlink:href="#icon-linkedin" transform="translate(48 48)"/><use xlink:href="#icon-youtube" transform="translate(96 48)"/><use xlink:href="#icon-stack-overflow" transform="translate(144 48)"/><use xlink:href="#icon-skype" transform="translate(192 48)"/><use xlink:href="#icon-vk" transform="translate(240 48)"/><use xlink:href="#icon-arrow-down" transform="translate(290 48)"/><use xlink:href="#icon-direction" transform="translate(338 48)"/></g></svg>